<?xml version="1.0" encoding="UTF-8"?>
<svg version="1.1" viewBox="0 0 1600 1600" width="1280" height="1280" xmlns="http://www.w3.org/2000/svg">
<path transform="translate(488 1.14)" d="m0 0c8.27 3.89 15.3 9.07 22.5 14.6 74.6 57.4 172 85.4 296 90.2 0.919-0.0126 1.84-0.0251 2.78-0.0381 31-0.481 61.8-3.93 92.2-9.96 1.09-0.214 2.17-0.427 3.29-0.647 56.2-11.3 110-31.7 159-62.4 1.41-0.875 1.41-0.875 2.85-1.77 6.04-3.78 11.8-7.81 17.5-12.1 28-20.9 28-20.9 40.7-19.1 7.15 2.24 12.3 6.72 17.7 11.8 2.31 2.23 2.31 2.23 4.91 4.23 2.18 1.77 3.88 3.49 5.66 5.64 4.01 4.69 8.35 8.99 12.8 13.3 27.3 27.3 54.7 54.7 82 82 0.866 0.862 1.73 1.72 2.62 2.61 1.72 1.73 3.41 3.5 5.07 5.29 0.957 1.01 1.91 2.02 2.87 3.04 0.449 0.5 0.898 0.999 1.36 1.51 8.13 8.46 20.5 12 31.2 16 1.35 0.502 2.71 1 4.06 1.51 2.86 1.06 5.73 2.12 8.59 3.18 4.52 1.67 9.04 3.34 13.6 5.02 4.57 1.7 9.15 3.39 13.7 5.09 12.7 4.71 25.4 9.46 38.1 14.2 2.86 1.07 5.73 2.15 8.59 3.22 1.88 0.707 3.77 1.41 5.65 2.12 7 2.63 14 5.25 21 7.87 11 4.1 21.9 8.21 32.9 12.3 2.66 0.999 5.32 2 7.98 2.99 4 1.5 8 3.01 12 4.52 1.43 0.539 2.86 1.08 4.29 1.61 20 7.49 20 7.49 25.3 13.7 0.534 0.593 1.07 1.19 1.62 1.8 4.09 6.65 4.95 13.5 4.88 21.1 0.00421 0.94 0.00841 1.88 0.0127 2.85 0.0104 3.15-4.7e-4 6.3-0.0113 9.45 0.00313 2.29 0.00757 4.58 0.0132 6.87 0.0117 6.32 0.00467 12.6-0.00533 19-0.00828 6.16 5.2e-4 12.3 0.00743 18.5 0.0138 12.7 0.0134 25.5 0.00516 38.2-0.00825 12.9-0.01 25.8-0.00379 38.8 3.88e-4 0.816 7.75e-4 1.63 0.00117 2.47 0.0016 3.32 0.00325 6.65 0.00495 9.97 0.0159 31 0.0169 61.9 0.00856 92.9-2.48e-4 0.917-4.97e-4 1.83-7.53e-4 2.78-2.49e-4 0.919-4.98e-4 1.84-7.54e-4 2.78-0.00757 28-0.00953 56-0.00593 83.9 2.32e-4 1.87 4.64e-4 3.75 6.94e-4 5.62 9.31e-4 7.53 0.00189 15.1 0.00288 22.6 0.00275 21 0.00446 42.1 0.00536 63.1 4.09e-5 0.958 8.19e-5 1.92 1.24e-4 2.9 0.00123 30.5-0.00215 61.1-0.00867 91.6-2.11e-4 0.991-4.21e-4 1.98-6.39e-4 3-0.00343 16.1-0.00709 32.2-0.0108 48.3-0.0146 63.8-0.0139 128 6.92e-4 191 0.00366 16.1 0.0073 32.2 0.0107 48.2 3.17e-4 1.48 3.17e-4 1.48 6.4e-4 3 0.00647 30.5 0.00921 61 0.00791 91.5-6.11e-5 1.44-6.11e-5 1.44-1.23e-4 2.9-9.37e-4 21-0.00284 42-0.00561 63.1-9.87e-4 7.52-0.00193 15-0.00285 22.6-2.32e-4 1.87-4.68e-4 3.74-7.09e-4 5.61-0.00358 28-5.29e-4 55.9 0.00705 83.9 3.73e-4 1.38 3.73e-4 1.38 7.53e-4 2.78 2.48e-4 0.916 4.96e-4 1.83 7.52e-4 2.77 0.00827 30.9 0.00524 61.7-0.0106 92.6-0.00166 3.31-0.00327 6.63-0.00484 9.94-3.91e-4 0.813-7.81e-4 1.63-0.00118 2.46-0.00592 12.9-0.00179 25.8 0.00649 38.7 0.00793 12.7 0.00516 25.3-0.00904 38-0.00731 6.78-0.00953 13.6 0.00122 20.3 0.00967 6.16 0.0056 12.3-0.00954 18.5-0.00303 2.22-0.00101 4.44 0.00662 6.65 0.0878 27.5 0.0878 27.5-8.49 36.3-7.22 6.3-14.9 7.95-24.2 7.91-0.937 0.00305-1.87 0.00611-2.84 0.00925-3.16 0.00783-6.31 0.00136-9.47-0.00498-2.29 0.00269-4.58 0.00626-6.87 0.0106-6.33 0.0095-12.7 0.00645-19 0.00144-6.16-0.0039-12.3 0.00355-18.5 0.00974-12.8 0.0125-25.5 0.0154-38.3 0.0132-12.9-0.00225-25.9-1.87e-4 -38.8 0.00714-1.22 6.89e-4 -1.22 6.89e-4 -2.47 0.00139-3.33 0.00188-6.65 0.00379-9.98 0.00574-34.7 0.0203-69.4 0.0264-104 0.0276-3.74 1.29e-4 -7.47 2.65e-4 -11.2 4.07e-4 -0.927 3.4e-5 -1.85 6.8e-5 -2.81 1.03e-4 -20.5 8.17e-4 -41.1 0.0052-61.6 0.0102-8.45 0.00206-16.9 0.00404-25.4 0.00603-0.934 2.21e-4 -1.87 4.42e-4 -2.83 6.7e-4 -53.5 0.0127-107 0.0209-161 0.02-2-3.16e-5 -4.01-6.3e-5 -6.01-9.44e-5 -9.05-1.47e-4 -18.1-3.23e-4 -27.1-5.08e-4 -4.04-8.22e-5 -8.07-1.63e-4 -12.1-2.43e-4 -2.02-4.08e-5 -4.04-8.28e-5 -6.06-1.26e-4 -63.9-0.00136-128 0.0133-192 0.0411-16.1 7e-3 -32.2 0.0139-48.3 0.0205-1.49 6.09e-4 -1.49 6.09e-4 -3 0.00123-30.5 0.0124-61.1 0.02-91.6 0.0225-0.958 7.99e-5 -1.92 1.6e-4 -2.9 2.42e-4 -21 0.00171-42.1 0.00223-63.1 0.00166-7.53-1.93e-4 -15.1-2.97e-4 -22.6-3.57e-4 -1.87-1.58e-5 -3.75-3.62e-5 -5.62-6.12e-5 -29.9-3.53e-4 -59.7 0.0111-89.6 0.0283-30.1 0.0173-60.1 0.0217-90.2 0.00848-4.15-0.00182-8.31-0.00351-12.5-0.00512-0.814-3.2e-4 -1.63-6.4e-4 -2.47-9.7e-4 -12.9-0.00471-25.8 0.00402-38.7 0.0183-12.7 0.0138-25.4 0.0133-38-0.00238-6.79-0.00801-13.6-0.00919-20.4 0.00691-6.17 0.0145-12.3 0.0107-18.5-0.00785-2.22-0.00345-4.44-1.53e-4 -6.67 0.0106-3.01 0.0136-6.02 0.00258-9.04-0.0145-0.858 0.0098-1.72 0.0196-2.6 0.0297-9.13-0.108-16.9-3.36-23.5-9.6-4.46-5.1-6.81-11.2-6.82-18-0.00278-0.798-0.00555-1.6-0.00841-2.42 0.00305-1.31 0.00305-1.31 0.00617-2.65-0.00178-0.936-0.00355-1.87-0.00538-2.84-0.00477-3.17-0.00236-6.33-4.11e-5 -9.5-0.00195-2.29-0.00434-4.58-0.00713-6.87-0.00642-6.34-0.00656-12.7-0.00572-19 3.35e-4 -6.17-0.00498-12.3-0.00966-18.5-0.00952-12.8-0.0142-25.6-0.0163-38.3-0.00213-13-0.00638-25.9-0.0132-38.9-4.31e-4 -0.818-8.61e-4 -1.64-0.0013-2.48-0.00176-3.33-0.00353-6.66-0.00531-9.99-0.0216-40.4-0.0325-80.8-0.0415-121-0.00293-13.1-0.0063-26.2-0.00997-39.3-2.58e-4 -0.924-5.17e-4 -1.85-7.83e-4 -2.8-0.00105-3.74-0.00209-7.47-0.00315-11.2-0.018-63.9-0.0333-128-0.0408-192-5.84e-4 -5.02-0.00118-10-0.00178-15.1-1.18e-4 -0.996-2.36e-4 -1.99-3.58e-4 -3.02-0.0012-10.1-0.00241-20.2-0.00363-30.3-2.45e-4 -2.02-4.89e-4 -4.05-7.32e-4 -6.07-0.00779-65-0.0302-130-0.0627-195-0.0233-46.7-0.0449-93.4-0.052-140-1.47e-4 -0.96-2.94e-4 -1.92-4.46e-4 -2.91-0.00318-21.1-0.00524-42.1-0.00623-63.2-4.15e-4 -8.48-9.7e-4 -17-0.00156-25.4-6.07e-5 -0.928-1.21e-4 -1.86-1.84e-4 -2.81-0.00202-29.9-0.0163-59.8-0.0368-89.7-0.0206-30.1-0.0285-60.2-0.0189-90.4 0.00132-4.16 0.0025-8.32 0.00359-12.5 3.3e-4 -1.22 3.3e-4 -1.22 6.66e-4 -2.47 0.00312-12.9-0.00722-25.8-0.0231-38.8-0.0154-12.7-0.0165-25.4-0.00245-38.1 0.00714-6.8 0.00744-13.6-0.00956-20.4-0.0153-6.18-0.0124-12.4 0.00541-18.5 0.00316-2.23-4.37e-4 -4.45-0.0115-6.68-0.014-3.02-0.00339-6.03 0.0133-9.05-0.00992-0.859-0.0198-1.72-0.0301-2.6 0.0919-7.85 2.3-15 7.53-21 9.16-8.24 22.4-11.8 33.8-15.9 4.09-1.48 8.17-2.98 12.3-4.48 2.14-0.784 4.28-1.57 6.42-2.35 10.7-3.92 21.4-7.91 32.1-11.9 1.94-0.728 3.88-1.46 5.82-2.19 11.5-4.32 23-8.65 34.5-13 2.25-0.849 4.5-1.7 6.76-2.55 6.81-2.57 13.6-5.14 20.4-7.71 26.4-9.96 26.4-9.96 38.9-14.5 0.847-0.311 1.69-0.622 2.57-0.942 3.66-1.34 7.32-2.68 11-4 1.2-0.439 2.41-0.878 3.65-1.33 0.996-0.358 1.99-0.716 3.02-1.09 4.65-2.05 8.61-4.75 12-8.48 0.908-0.908 1.82-1.82 2.75-2.75h2c0.355-0.842 0.355-0.842 0.717-1.7 1.59-2.84 3.52-4.79 5.82-7.1 0.464-0.468 0.927-0.936 1.4-1.42 1.55-1.57 3.11-3.12 4.67-4.68 1.12-1.12 2.23-2.24 3.35-3.37 3.03-3.05 6.07-6.09 9.11-9.13 1.9-1.9 3.8-3.81 5.7-5.71 6.63-6.65 13.3-13.3 19.9-19.9 6.18-6.18 12.3-12.4 18.5-18.6 5.3-5.33 10.6-10.6 15.9-16 3.17-3.17 6.33-6.34 9.49-9.52 2.98-3 5.96-5.98 8.96-8.96 1.09-1.09 2.18-2.18 3.26-3.28 10.6-10.7 23.4-23.2 39.5-17.5zm652 89.9c-1.29 0.983-1.29 0.983-2.6 1.98-0.927 0.713-1.85 1.43-2.81 2.16-0.951 0.728-1.9 1.46-2.88 2.21-1.95 1.49-3.9 2.99-5.85 4.48-2.44 1.87-4.87 3.73-7.31 5.59-7.94 6.05-15.8 12.2-23.7 18.3-7.24 5.64-14.5 11.2-21.8 16.8-2.81 2.15-5.62 4.31-8.42 6.47-4.99 3.84-9.99 7.67-15 11.5-7.18 5.49-14.3 11-21.5 16.5-2.17 1.67-4.33 3.33-6.5 5-1.08 0.833-2.17 1.67-3.25 2.5-71.5 55-71.5 55-73.1 56.2-1.09 0.837-2.17 1.67-3.26 2.51-2.64 2.04-5.29 4.07-7.94 6.1-4.74 3.64-9.47 7.28-14.2 11-7.26 5.67-14.5 11.3-21.9 16.8-5.83 4.33-11.5 8.81-17.2 13.4-5.82 4.68-11.8 9.15-17.8 13.6-7.39 5.51-14.7 11.1-21.9 16.9 4.12 4.24 8.36 8.26 12.8 12.1 4.98 4.32 9.84 8.78 14.7 13.2 4.42 3.99 8.87 7.95 13.4 11.9 3.24 2.84 6.43 5.74 9.62 8.62 2.13 1.91 4.28 3.81 6.44 5.69 3.03 2.64 6.02 5.31 9 8 5.31 4.79 10.7 9.52 16.1 14.1 6.83 5.8 13.5 11.7 20 17.8 3.58 3.35 7.2 6.64 10.9 9.84 2.33 2.03 4.63 4.1 6.92 6.17 2.98 2.69 5.97 5.36 9 8 3.9 3.39 7.73 6.85 11.6 10.3 2.13 1.91 4.28 3.81 6.44 5.69 3.03 2.64 6.02 5.31 9 8 4.3 3.88 8.63 7.71 13 11.5 0.814 0.712 0.814 0.712 1.64 1.44 1.86 1.63 3.73 3.25 5.61 4.88 0.904 0.792 0.904 0.792 1.83 1.6 3.42 2.95 3.42 2.95 7.28 5.25 1.64 0.832 1.64 0.832 2.64 3.83 2.5 1.22 2.5 1.22 5 2 5.8-9.71 11.4-19.5 16.9-29.4 5.04-9.04 10.2-18 15.4-27 2.82-4.84 5.6-9.71 8.38-14.6 0.491-0.86 0.982-1.72 1.49-2.61 1.61-2.82 3.22-5.64 4.82-8.46 2.6-4.56 5.21-9.13 7.81-13.7 0.338-0.591 0.675-1.18 1.02-1.79 4.9-8.59 9.84-17.2 14.8-25.7 4.88-8.44 9.69-16.9 14.4-25.4 7.73-13.9 15.7-27.6 23.8-41.3l1.35-2.28c0.796-1.35 1.59-2.69 2.39-4.04 2.71-4.59 5.27-9.25 7.81-13.9 2.51-4.6 5.1-9.17 7.68-13.7 0.564-0.997 1.13-1.99 1.71-3.02 5.14-9.08 10.3-18.1 15.5-27.2 1.82-3.17 3.63-6.35 5.44-9.53 6.07-10.6 12.2-21.3 18.3-31.9 1.28-2.21 2.55-4.42 3.82-6.63 2.59-4.5 5.19-9 7.87-13.4 0.584-0.983 0.584-0.983 1.18-1.98 0.973-1.63 1.96-3.26 2.95-4.88 1.3-2.93 1.2-3.61 0.125-6.54-1.27-1.71-1.27-1.71-2.92-3.29-0.934-0.942-0.934-0.942-1.89-1.9-1.03-1.02-1.03-1.02-2.08-2.05-0.72-0.722-1.44-1.44-2.18-2.19-2.39-2.39-4.78-4.77-7.18-7.14-1.66-1.65-3.31-3.31-4.97-4.96-3.47-3.46-6.94-6.92-10.4-10.4-4.47-4.44-8.93-8.89-13.4-13.3-3.42-3.41-6.84-6.82-10.3-10.2-1.65-1.64-3.29-3.28-4.94-4.92-2.29-2.29-4.59-4.57-6.89-6.85-1.03-1.03-1.03-1.03-2.08-2.08-0.934-0.925-0.934-0.925-1.89-1.87-0.543-0.541-1.09-1.08-1.65-1.64-2.57-2.3-3.97 0.0615-6.37 1.9zm-689 0.733c-0.628 0.615-1.26 1.23-1.9 1.86-1.02 1.03-1.02 1.03-2.07 2.07-0.724 0.714-1.45 1.43-2.19 2.16-2.4 2.37-4.79 4.75-7.17 7.14-1.66 1.65-3.31 3.29-4.97 4.94-3.48 3.46-6.94 6.92-10.4 10.4-4.45 4.45-8.92 8.88-13.4 13.3-3.43 3.4-6.85 6.81-10.3 10.2-1.64 1.64-3.29 3.27-4.94 4.9-2.31 2.28-4.59 4.57-6.88 6.87-1.04 1.01-1.04 1.01-2.09 2.04-3.63 3.45-3.63 3.45-4.53 8.12 1.15 2.54 2.37 4.91 3.8 7.3 0.577 0.975 1.15 1.95 1.75 2.95 0.62 1.03 1.24 2.07 1.88 3.13 1.29 2.17 2.57 4.34 3.85 6.51 0.633 1.07 1.27 2.14 1.92 3.24 2.43 4.15 4.78 8.34 7.1 12.6 0.403 0.729 0.805 1.46 1.22 2.21 0.784 1.42 1.57 2.84 2.35 4.27 6.23 11.3 12.7 22.5 19.1 33.6 4.67 8.08 9.31 16.2 13.9 24.3 0.497 0.87 0.497 0.87 1 1.76 1.68 2.94 3.36 5.89 5.04 8.84 3 5.26 6.01 10.5 9.02 15.8 0.998 1.75 2 3.49 2.99 5.24 3.02 5.28 6.03 10.6 9.06 15.8 1.69 2.95 3.38 5.91 5.07 8.86 0.331 0.579 0.662 1.16 1 1.75 4.8 8.39 9.54 16.8 14.2 25.2 6.16 11 12.5 22 19 32.8 0.395 0.655 0.789 1.31 1.2 1.98 1.06 1.76 2.13 3.52 3.2 5.27 2.32 3.89 4.46 7.86 6.61 11.8 7.85 14.4 16 28.7 24.3 42.9 4.31 7.36 8.5 14.8 12.6 22.2 4.67 8.41 9.44 16.7 14.6 24.8 2.93-1.34 5.17-2.85 7.56-5 0.696-0.621 1.39-1.24 2.11-1.88 1.64-1.49 3.27-2.99 4.91-4.48 4.61-4.22 9.24-8.34 14.1-12.3 3.29-2.65 6.37-5.34 9.31-8.38 2.87-2.95 5.85-5.56 9.06-8.12 4.74-3.8 9.2-7.83 13.6-12 0.651-0.613 1.3-1.23 1.97-1.86 0.63-0.594 1.26-1.19 1.91-1.8 4.2-3.95 8.51-7.74 12.9-11.5 7.14-6.07 14.2-12.2 21-18.6 3.46-3.22 6.96-6.37 10.5-9.46 2.3-2 4.56-4.04 6.82-6.07 0.844-0.761 1.69-1.52 2.56-2.3 1.68-1.52 3.36-3.05 5.04-4.58 4.31-3.92 8.68-7.71 13.2-11.4 3.78-3.06 7.27-6.21 10.6-9.7 2.39-2.4 4.94-4.58 7.5-6.79 2.42-2.1 4.79-4.24 7.17-6.38 5.52-4.98 11.1-9.89 16.8-14.7l2.05-1.74c1.36-1.16 2.72-2.31 4.09-3.46 0.629-0.538 1.26-1.08 1.91-1.63 0.851-0.719 0.851-0.719 1.72-1.45 1.64-1.71 2.52-3.38 3.48-5.54-0.447-0.341-0.894-0.683-1.35-1.03-9.56-7.31-19.1-14.6-28.6-22-1.62-1.25-3.24-2.5-4.86-3.74-1.09-0.839-2.18-1.68-3.27-2.52-2.64-2.03-5.29-4.07-7.94-6.1-4.69-3.6-9.38-7.21-14-10.9-7.96-6.22-16-12.4-24.1-18.4-6.66-4.96-13.2-10-19.7-15.2-4.55-3.67-9.2-7.19-13.9-10.7-3.97-2.96-7.86-6.03-11.8-9.08-6.5-5.08-13.1-10.1-19.7-15-6.56-4.89-13-9.87-19.4-15-5.12-4.13-10.4-8.09-15.6-12-4.49-3.33-8.85-6.79-13.2-10.3-4.25-3.39-8.58-6.66-12.9-9.95-1.86-1.41-3.71-2.82-5.57-4.23-1.33-1.01-1.33-1.01-2.68-2.04-8.98-6.83-17.9-13.8-26.8-20.7-5.97-4.64-11.9-9.27-17.9-13.9-1.87-1.44-3.75-2.88-5.62-4.32-4.35-3.35-8.72-6.67-13.1-9.99-0.846-0.642-1.69-1.28-2.56-1.95-2.6-1.96-5.2-3.92-7.81-5.87-1.22-0.926-1.22-0.926-2.47-1.87-0.76-0.565-1.52-1.13-2.3-1.71-1.01-0.756-1.01-0.756-2.04-1.53-3.59-2.14-5.32-0.95-7.99 1.7zm128 24.2c4.08 4.31 8.54 7.89 13.2 11.5 0.789 0.609 1.58 1.22 2.39 1.84 2.45 1.89 4.9 3.77 7.36 5.66 0.756 0.579 1.51 1.16 2.29 1.76 3.58 2.75 7.17 5.49 10.8 8.23 4.54 3.47 9.07 6.95 13.6 10.4 2.43 1.87 4.87 3.73 7.3 5.59 7.38 5.63 14.7 11.3 22.1 17 10.3 8.04 20.7 16 31.1 23.9 9.16 6.97 18.3 14 27.4 21 5.68 4.43 11.4 8.81 17.1 13.2 5.26 4.02 10.5 8.08 15.7 12.2 5.9 4.6 11.8 9.14 17.8 13.6 3.12 2.33 6.21 4.7 9.29 7.07 0.535 0.411 1.07 0.822 1.62 1.25 2.84 2.18 5.67 4.38 8.48 6.6 0.58 0.454 1.16 0.909 1.76 1.38 1.61 1.26 3.22 2.54 4.83 3.81 3.64 2.76 3.64 2.76 7.88 4.03 2.88-1.44 5.23-3.45 7.69-5.5 1.53-1.22 3.05-2.44 4.58-3.66 1.17-0.955 1.17-0.955 2.37-1.93 3.72-3.01 7.51-5.92 11.3-8.85 1.51-1.17 3.01-2.35 4.52-3.52 0.748-0.583 1.5-1.17 2.27-1.77 2.28-1.78 4.57-3.57 6.85-5.35 7.86-6.13 15.8-12.2 23.7-18.2 10.1-7.56 20.1-15.3 30-23.1 10.9-8.5 21.9-16.9 32.9-25.3 10.6-8.11 21.2-16.3 31.8-24.5 5.82-4.53 11.7-9.01 17.5-13.5 5.24-4 10.5-8.04 15.7-12.1 21.6-16.8 21.6-16.8 28.8-21.8-3.21-1.06-4.96-0.951-8.11 0.228-0.805 0.295-1.61 0.59-2.44 0.894-0.868 0.33-1.74 0.66-2.63 0.999-1.88 0.692-3.77 1.38-5.65 2.07-0.987 0.366-1.97 0.733-2.99 1.11-17.7 6.56-35.3 12.5-53.7 16.9-3.44 0.829-6.86 1.71-10.3 2.61-15.6 3.97-31.3 6.66-47.2 9.03-0.98 0.147-1.96 0.294-2.97 0.446-28.3 4.22-56.6 5.96-85.2 5.93-0.994-9.37e-4 -1.99-0.00187-3.01-0.00284-30.3-0.0613-59.8-2.24-89.8-6.87-1.84-0.284-3.67-0.561-5.51-0.837-16-2.47-31.7-6.38-47.4-10.3-0.994-0.249-1.99-0.497-3.01-0.754-13.6-3.43-26.9-7.5-40-12.4-1.26-0.461-2.53-0.921-3.79-1.38-4.23-1.55-8.46-3.1-12.7-4.67-5.21-1.9-9.99-3.46-15.5-3.95zm686 76c-1.45 2.29-2.83 4.59-4.19 6.94-0.439 0.751-0.878 1.5-1.33 2.28-4.44 7.63-8.73 15.4-13 23.1-4.07 7.29-8.23 14.5-12.5 21.7-4.76 8.11-9.42 16.3-14 24.5-5.14 9.23-10.4 18.4-15.8 27.5-4.17 7.12-8.23 14.3-12.2 21.5-5.16 9.28-10.5 18.5-15.8 27.6-3.91 6.67-7.75 13.4-11.6 20.1-4.83 8.58-9.68 17.1-14.6 25.7-0.338 0.592-0.676 1.18-1.02 1.79-4.65 8.14-9.36 16.2-14.1 24.3-5.69 9.7-11.2 19.5-16.6 29.4-3.78 6.83-7.64 13.6-11.6 20.3-3.38 5.69-6.64 11.4-9.88 17.2-6.57 11.7-13.2 23.3-20 34.9-1.82 3.14-3.63 6.29-5.44 9.44-1.13 1.96-2.27 3.91-3.41 5.87-0.503 0.882-1.01 1.76-1.53 2.67-5.13 8.77-9.8 15.5-19.8 18.6-7.72 1.78-14.9 0.541-21.7-3.6-4.82-3.49-9.18-7.56-13.6-11.6-2.08-1.89-4.18-3.75-6.3-5.59-2.85-2.48-5.63-5.01-8.4-7.58-5.27-4.88-10.7-9.5-16.3-14-2.71-2.26-5.13-4.69-7.57-7.23-2.34-2.26-4.84-4.27-7.38-6.31-3.16-2.54-6.18-5.08-9-8-2.69-2.79-5.54-5.2-8.56-7.62-5.83-4.69-11.3-9.75-16.7-14.9-3.02-2.83-6.1-5.56-9.23-8.27-2.53-2.21-5.01-4.47-7.49-6.74-3.79-3.45-7.6-6.86-11.5-10.2-2.36-2.07-4.7-4.17-7.03-6.28-2.98-2.69-5.97-5.36-9-8-3.9-3.39-7.73-6.85-11.6-10.3-2.78-2.49-5.58-4.95-8.4-7.39-2.24-1.97-4.45-3.97-6.66-5.98-4.6-4.16-9.31-8.19-14-12.2-5.11-4.36-10-8.91-14.9-13.5-2.32-2.26-2.32-2.26-5.43-3.08v1168h614v-1289c-9.84-4.12-9.84-4.12-19.8-8.06-0.738-0.286-1.48-0.572-2.24-0.867-11.1-4.27-22.2-8.39-33.3-12.5-7.77-2.9-15.5-5.82-23.3-8.73-4.2-1.57-8.4-3.15-12.6-4.72-1.77-0.662-3.53-1.32-5.3-1.99-1.36-0.509-1.36-0.509-2.74-1.03-33.7-12.6-33.7-12.6-36.6-13.7-1.88-0.704-3.76-1.41-5.63-2.11-5.13-1.92-10.3-3.85-15.4-5.78-1.66-0.626-1.66-0.626-3.36-1.26-2.15-0.81-4.3-1.62-6.45-2.43-0.961-0.362-1.92-0.723-2.91-1.1-0.854-0.322-1.71-0.644-2.59-0.976-1.76-0.745-1.76-0.745-2.95-0.689zm-940 3.21c-0.638 0.239-1.28 0.478-1.93 0.725-2.14 0.806-4.28 1.62-6.42 2.44-1.55 0.584-3.1 1.17-4.64 1.75-3.38 1.27-6.75 2.55-10.1 3.83-5.57 2.11-11.1 4.2-16.7 6.29-1.96 0.733-3.92 1.47-5.88 2.2-0.986 0.369-1.97 0.738-2.99 1.12-5.12 1.92-10.2 3.84-15.3 5.76-9.29 3.49-18.6 6.98-27.9 10.5-5.02 1.88-10 3.77-15.1 5.65-8.82 3.31-17.6 6.62-26.5 9.89-3.77 1.4-7.55 2.8-11.3 4.2-1.77 0.656-3.54 1.31-5.32 1.96-2.42 0.889-4.84 1.79-7.26 2.69-1.08 0.391-1.08 0.391-2.17 0.79-3.69 1.17-3.69 1.17-5.99 4.05-0.0975 2.84-0.133 5.66-0.124 8.51-0.00128 0.897-0.00256 1.79-0.00387 2.72-0.00309 3.05 0.00102 6.09 0.00502 9.14-7.39e-4 2.2-0.00192 4.4-0.0035 6.6-0.00309 6.1 1.22e-4 12.2 0.00428 18.3 0.00307 5.93 0.00143 11.9-8.36e-5 17.8-0.00297 12.3-0.00119 24.6 0.00314 36.9 0.00437 12.5 0.00657 24.9 0.0061 37.4-2.87e-5 0.786-5.74e-5 1.57-8.69e-5 2.38-1.56e-4 4.01-3.48e-4 8.01-5.53e-4 12-0.00141 29 0.00203 58 0.00802 87.1 0.00592 28.8 0.00977 57.5 0.0109 86.3 3.44e-5 0.892 6.88e-5 1.78 1.04e-4 2.7 3.13e-4 8.15 6.01e-4 16.3 8.58e-4 24.4 6.39e-4 20.3 0.0016 40.5 0.00278 60.8 5.33e-5 0.923 1.07e-4 1.85 1.62e-4 2.8 0.00262 44.9 0.00893 89.8 0.0155 135 0.00229 15.6 0.00457 31.2 0.00677 46.8 1.37e-4 0.967 2.74e-4 1.93 4.15e-4 2.93 0.00634 44.9 0.0101 89.8 0.0131 135 2.01e-4 2.94 4.03e-4 5.88 6.06e-4 8.81 0.00211 30.6 0.0041 61.2 0.00603 91.9 5.52e-5 0.875 1.1e-4 1.75 1.67e-4 2.65 1e-4 1.59 2.01e-4 3.18 3.01e-4 4.77 0.00935 148 0.0295 297 0.048 445h614c0.604-15.7 1.15-31.3 1.12-47 7.43e-4 -1.98 0.00192-3.95 0.0035-5.93 0.00303-5.37-7.03e-5 -10.7-0.00428-16.1-0.00347-5.86-0.00106-11.7 5.77e-4 -17.6 0.0022-10.9-7.41e-5 -21.8-0.00444-32.8-0.00407-10.3-0.00574-20.6-0.00529-30.9 2.87e-5 -0.697 5.74e-5 -1.39 8.69e-5 -2.11 1.56e-4 -3.55 3.48e-4 -7.11 5.53e-4 -10.7 0.0014-25.6-0.00201-51.3-0.00802-76.9-0.00593-25.4-0.00978-50.8-0.0109-76.1-3.44e-5 -0.79-6.88e-5 -1.58-1.04e-4 -2.39-3.13e-4 -7.21-6.01e-4 -14.4-8.58e-4 -21.6-6.39e-4 -17.9-0.0016-35.9-0.00278-53.8-8e-5 -1.22-8e-5 -1.22-1.62e-4 -2.47-0.00262-39.7-0.00893-79.3-0.0155-119-0.00229-13.8-0.00457-27.5-0.00677-41.3-1.37e-4 -0.853-2.74e-4 -1.71-4.15e-4 -2.58-0.00635-39.7-0.0101-79.4-0.0131-119-1.98e-4 -2.58-3.97e-4 -5.16-5.97e-4 -7.73-0.00132-17.1-0.00259-34.2-0.00384-51.3-0.00248-34-0.00522-68-0.00814-102-1.39e-4 -1.62-2.78e-4 -3.24-4.17e-4 -4.86-0.00625-72.8-0.0156-146-0.0263-218-9.99e-5 -0.682-2e-4 -1.36-3.03e-4 -2.07-5e-3 -34.1-0.0102-68.2-0.0156-102-4.53 0.861-7.03 3.51-10.2 6.62-1.17 1.1-2.34 2.21-3.5 3.31l-1.7 1.61c-1.87 1.76-3.79 3.46-5.73 5.14-2.97 2.57-5.9 5.18-8.81 7.81-3.62 3.27-7.27 6.5-10.9 9.7-2.31 2.03-4.59 4.11-6.86 6.18-3.52 3.18-7.11 6.22-10.8 9.19-3.31 2.67-6.41 5.38-9.38 8.44-2.88 2.97-5.89 5.6-9.12 8.19-5.82 4.67-11.2 9.71-16.7 14.8-3.02 2.83-6.1 5.56-9.23 8.27-2.53 2.21-5.01 4.47-7.49 6.74-5.46 4.97-11 9.87-16.6 14.6-6.77 5.75-13.4 11.6-19.8 17.7-4.4 4.11-8.97 7.91-13.7 11.7-2.76 2.29-5.24 4.74-7.73 7.31-2.39 2.4-4.94 4.59-7.5 6.79-2.38 2.07-4.71 4.19-7.04 6.32-20.1 18.1-20.1 18.1-34.4 17.9-7.73-0.954-13-5.08-17.9-10.9-3.61-4.82-6.44-10.1-9.35-15.3-0.697-1.24-1.4-2.49-2.1-3.73-1.08-1.91-2.15-3.83-3.23-5.74-3.54-6.32-7.17-12.6-10.8-18.8-4.88-8.44-9.69-16.9-14.4-25.4-5.08-9.11-10.3-18.1-15.5-27.1-4.53-7.74-9.01-15.5-13.5-23.3-0.338-0.591-0.675-1.18-1.02-1.79-5.07-8.89-10.1-17.8-15.1-26.7-3.82-6.77-7.73-13.5-11.7-20.2-5.66-9.64-11.1-19.4-16.5-29.2-4.68-8.46-9.51-16.8-14.4-25.2-4.16-7.09-8.2-14.2-12.2-21.4-5.16-9.27-10.4-18.5-15.8-27.6-4.51-7.7-8.92-15.5-13.3-23.2-3.85-6.84-7.79-13.6-11.8-20.4-7.61-13-14.9-26.1-22.1-39.2-4.31-0.284-7.43 0.686-11.5 2.21z" fill="#000002"/>
<path transform="translate(988 747)" d="m0 0c1.72-0.00576 1.72-0.00576 3.47-0.0116 1.26 8.66e-4 2.52 0.00173 3.81 0.00263 1.35-0.00258 2.7-0.0056 4.05-9e-3 3.71-0.00807 7.43-0.00986 11.1-0.0106 4-0.00185 8.01-0.0094 12-0.0161 8.76-0.0136 17.5-0.0196 26.3-0.024 5.47-0.00276 10.9-7e-3 16.4-0.0115 15.1-0.0122 30.3-0.0225 45.4-0.0259 0.969-2.2e-4 1.94-4.39e-4 2.94-6.65e-4 1.46-3.27e-4 1.46-3.27e-4 2.94-6.61e-4 1.97-4.43e-4 3.94-8.9e-4 5.9-0.00134 1.46-3.32e-4 1.46-3.32e-4 2.96-6.71e-4 15.8-0.00395 31.6-0.0214 47.5-0.0447 16.2-0.0237 32.5-0.0362 48.7-0.0373 9.12-9.17e-4 18.2-0.00666 27.4-0.0248 7.76-0.0154 15.5-0.0205 23.3-0.0123 3.96 0.0039 7.92 0.00299 11.9-0.0111 3.63-0.0128 7.26-0.0115 10.9 5.91e-4 1.93 0.00288 3.86-0.00897 5.78-0.0214 9.5 0.054 18.8 1.35 25.7 8.39 6.07 8.32 7.15 14.8 7.13 24.9 0.00227 1 0.00453 2.01 0.00687 3.04 0.00634 3.37 0.00551 6.73 0.00469 10.1 0.00299 2.41 0.00639 4.82 0.0102 7.23 0.00792 5.87 0.0111 11.7 0.0116 17.6 4.75e-4 4.77 0.00253 9.55 0.0057 14.3 0.00881 13.5 0.0134 27.1 0.0127 40.6-5.99e-5 1.09-5.99e-5 1.09-1.21e-4 2.21-4.09e-5 0.731-8.18e-5 1.46-1.24e-4 2.21-4.06e-4 11.8 0.00916 23.7 0.0233 35.5 0.0144 12.2 0.0213 24.3 0.0204 36.5-3.32e-4 6.83 0.00241 13.7 0.0132 20.5 0.0101 6.42 0.00976 12.8 0.00248 19.3-0.00105 2.36 0.00132 4.71 0.00736 7.07 0.00772 3.22 0.00308 6.44-0.00463 9.65 0.00514 0.93 0.0103 1.86 0.0156 2.82-0.0485 9.16-1.46 16.6-8.14 23.4-3.82 3.56-7.76 6.61-12.2 9.36-5.96 3.74-11.8 7.63-17.7 11.5-1.57 1.05-1.57 1.05-3.18 2.13-2.08 1.39-4.16 2.78-6.25 4.17-3.63 2.42-7.26 4.84-10.9 7.26-1.17 0.779-2.34 1.56-3.5 2.34-27.4 18.3-54.8 36.5-82.2 54.8-0.932 0.621-0.932 0.621-1.88 1.25-1.25 0.831-2.49 1.66-3.74 2.49-3.22 2.14-6.43 4.3-9.64 6.47-0.66 0.446-1.32 0.892-2 1.35-1.25 0.842-2.49 1.69-3.73 2.54-8.36 5.64-16 9.44-26.3 8.4-7.38-2.18-13.6-6.04-20-10.3-0.92-0.61-1.84-1.22-2.79-1.85-2.92-1.94-5.83-3.89-8.74-5.84-1.92-1.28-3.84-2.56-5.77-3.83-4.69-3.12-9.38-6.25-14.1-9.38-4.14-2.77-8.28-5.53-12.4-8.29-0.742-0.494-1.48-0.989-2.25-1.5-3.83-2.55-7.66-5.1-11.5-7.65-9.76-6.49-19.5-13-29.2-19.6-1.42-0.961-1.42-0.961-2.88-1.94-4.79-3.24-9.58-6.47-14.4-9.72-8.61-5.82-17.2-11.6-26-17.1-28.3-18.2-28.3-18.2-31.6-31.7-0.766-4.15-0.708-8.28-0.69-12.5-0.00383-0.996-0.00765-1.99-0.0116-3.02-0.0103-3.32-0.00635-6.65-0.00237-9.97-0.00435-2.39-0.00953-4.78-0.0155-7.17-0.012-5.81-0.0145-11.6-0.0122-17.4 0.00179-4.72 2.71e-5 -9.44-0.00422-14.2-5.95e-4 -0.673-0.00119-1.35-0.0018-2.04-0.00121-1.37-0.00243-2.74-0.00364-4.1-0.0109-12.8-0.00872-25.6-0.00262-38.4 0.00517-11.7-0.00609-23.4-0.0251-35.1-0.0194-12-0.0276-24.1-0.0239-36.1 0.00191-6.75-5.48e-4 -13.5-0.0147-20.3-0.0126-6.35-0.0106-12.7 0.00241-19.1 0.00236-2.33-3.63e-4 -4.66-0.00862-6.98-0.0105-3.18-0.00235-6.37 0.0103-9.55-0.00737-0.915-0.0147-1.83-0.0223-2.77 0.077-9.24 1.96-17.1 8.43-23.9 6.08-5.43 11.4-7.88 19.6-7.89zm25.4 53.1c-0.122 2.55-0.179 5.07-0.194 7.62-0.00862 0.808-0.0172 1.62-0.0261 2.45-0.0276 2.73-0.0477 5.46-0.0677 8.18-0.0177 1.95-0.0357 3.9-0.054 5.84-0.159 17.8-0.243 35.6-0.31 53.4-0.0502 13.2-0.136 26.3-0.269 39.5-0.0899 9.25-0.138 18.5-0.155 27.8-0.0115 5.53-0.0419 11.1-0.118 16.6-0.0709 5.2-0.0897 10.4-0.0689 15.6-0.00143 1.91-0.0216 3.82-0.0622 5.72-0.519 10.3-0.519 10.3 3.68 19.2 2.8 2.07 5.53 3.63 8.64 5.16 1.69 1.11 3.37 2.24 5.03 3.4 1.7 1.12 3.4 2.23 5.1 3.34 1.38 0.909 1.38 0.909 2.8 1.84 2.92 1.91 5.83 3.83 8.75 5.74 11.7 7.7 23.5 15.4 35 23.4 5.05 3.49 10.2 6.88 15.3 10.3 1.91 1.27 3.82 2.54 5.73 3.82 1.45 0.965 2.9 1.93 4.34 2.89 4.54 3.02 9.07 6.06 13.6 9.11 2.72 1.84 5.45 3.67 8.17 5.5 1.36 0.915 2.72 1.83 4.08 2.75 1.92 1.3 3.85 2.59 5.78 3.89 0.578 0.394 1.16 0.788 1.75 1.19 3.98 2.7 3.98 2.7 8.57 3.86 2.53-1.4 2.53-1.4 5.06-3.5 3.71-2.84 7.42-5.52 11.4-8 5.93-3.72 11.7-7.6 17.6-11.5 2.44-1.63 4.87-3.25 7.31-4.88 1.27-0.849 2.55-1.7 3.82-2.55 16.8-11.2 33.5-22.4 50.3-33.5 0.752-0.501 1.5-1 2.28-1.52 1.53-1.02 3.05-2.03 4.58-3.05 3.64-2.43 7.28-4.85 10.9-7.29 0.664-0.444 1.33-0.888 2.01-1.35 1.22-0.819 2.45-1.64 3.67-2.46 0.558-0.373 1.12-0.746 1.69-1.13 0.515-0.351 1.03-0.703 1.56-1.06 1.87-1.19 1.87-1.19 3.92-2.22 2.22-1.16 4.08-2.31 5.95-3.97 0.834-3.16 1.06-5.03 0.969-8.19 0.00754-0.82 0.0151-1.64 0.0229-2.49 0.0155-2.75-0.0261-5.49-0.0675-8.24-6.2e-4 -1.97 0.00227-3.94 0.00841-5.91 0.00657-5.35-0.0364-10.7-0.0884-16-0.0463-5.59-0.0481-11.2-0.0548-16.8-0.0175-9.38-0.0639-18.8-0.131-28.1-0.0946-13.2-0.138-26.5-0.171-39.7-0.0465-17.7-0.107-35.5-0.228-53.2-0.0126-1.92-0.0234-3.85-0.0326-5.77-0.0128-2.62-0.0319-5.23-0.0528-7.85-0.00254-0.772-0.00509-1.54-0.00771-2.34 0.277-3.46 0.277-3.46-1.17-6.34-1.42-0.0975-2.84-0.126-4.26-0.126-1.39-0.00391-1.39-0.00391-2.8-0.0079-1.03 0.00223-2.06 0.00446-3.11 0.00676-1.08-0.00156-2.16-0.00312-3.28-0.00473-3.66-0.00402-7.31-8.18e-4 -11 0.00232-2.61-0.00135-5.22-0.00313-7.83-0.00531-6.37-0.00446-12.7-0.00348-19.1-5.87e-4 -5.17 0.00225-10.3 0.00257-15.5 0.00148-1.1-2.3e-4 -1.1-2.3e-4 -2.23-4.64e-4 -1.49-3.2e-4 -2.99-6.44e-4 -4.48-9.73e-4 -14-0.00285-28 4.33e-4 -42 0.0058-12 0.00447-24.1 0.00369-36.1-9.19e-4 -14-0.00535-27.9-0.00746-41.9-0.00439-1.49 3.19e-4 -2.98 6.33e-4 -4.46 9.43e-4 -1.1 2.31e-4 -1.1 2.31e-4 -2.22 4.68e-4 -5.17 8.65e-4 -10.3-5.98e-4 -15.5-0.00295-6.95-0.00309-13.9-9.06e-4 -20.9 0.00489-2.56 0.00133-5.12 9.32e-4 -7.68-0.00126-3.48-0.00271-6.96 6.66e-4 -10.4 0.00568-1.03-0.00223-2.06-0.00446-3.11-0.00676-0.924 0.00261-1.85 0.00522-2.8 0.0079-1.21 2.44e-4 -1.21 2.44e-4 -2.44 4.92e-4 -1.84-0.0737-1.84-0.0737-2.82 1.13z" fill="#000002"/>
<path transform="translate(654 1098)" d="m0 0c6.31 4.85 10.6 10.5 12.1 18.4 0.76 8.21-1.9 15.6-7 22-5.53 5.66-11.7 7.45-19.4 8.44-6.41-0.787-12.3-2.69-17.4-6.69-6.54-8.46-9.11-14.9-8.12-25.8 2.12-7.35 5.8-12.9 12.4-16.8 8.33-4.58 19.3-4.8 27.5 0.312z" fill="#000002"/>
<path transform="translate(656,1312)" d="m0 0c6.45 5.79 9.59 12.7 10.2 21.2-0.624 9.37-4.36 15.4-11.2 21.8-6.77 4.25-14.6 5.19-22.4 3.47-8.36-2.56-12-6.68-16.4-14.1-3.26-6.19-3.41-13.5-1.4-20.1 3.2-6.99 7.97-12 14.8-15.6 9.35-2.46 18-1.84 26.4 3.38z" fill="#000002"/>
<path transform="translate(656,672)" d="m0 0c6 5.34 9.19 11.1 10.3 19 0.383 7.72-2.11 14-7.03 19.8-5.78 6.09-11.8 7.83-20.1 8.38-6.76-0.102-13.1-2.91-18.2-7.25-5.79-8.24-8.06-14.9-7-25 2.22-7.33 6.54-12.9 13-17 9.33-4.48 20.5-4.21 29 2z" fill="#000002"/>
<path transform="translate(654,884)" d="m0 0c5.97 3.98 9.92 9.53 11.6 16.6 1.21 7.73 0.144 14.4-4.29 20.9-5.24 6.36-10.2 9.9-18.4 11-8.36 0.392-15.1-1.21-21.5-6.79-1.29-1.43-1.29-1.43-3.41-4.61-0.391-0.562-0.781-1.12-1.18-1.7-3.67-6.05-3.76-12.4-2.82-19.3 2.64-8.53 7.66-13.4 15.1-17.9 7.97-3.02 17.4-1.91 24.9 1.88z" fill="#000002"/>
</svg>
